<svg width="551" height="140" viewBox="0 0 551 140" fill="none" xmlns="http://www.w3.org/2000/svg">
<path opacity="0.6" d="M62.2 135V137H64.2V135H62.2ZM62.2 4.5H64.2V2.5H62.2V4.5ZM39.7 4.5V2.5H38.3523L37.8463 3.74913L39.7 4.5ZM2.98 25.56L2.93084 23.5606L0.98 23.6086V25.56H2.98ZM2.98 47.34H0.98V49.34H2.98V47.34ZM32.68 47.34H34.68V45.34H32.68V47.34ZM32.68 135H30.68V137H32.68V135ZM64.2 135V4.5H60.2V135H64.2ZM62.2 2.5H39.7V6.5H62.2V2.5ZM37.8463 3.74913C35.0692 10.6051 31.612 15.3176 26.388 18.4438C21.1028 21.6066 13.7652 23.2942 2.93084 23.5606L3.02917 27.5594C14.1548 27.2858 22.2972 25.5534 28.442 21.8762C34.648 18.1624 38.5708 12.6149 41.5537 5.25086L37.8463 3.74913ZM0.98 25.56V47.34H4.98V25.56H0.98ZM2.98 49.34H32.68V45.34H2.98V49.34ZM30.68 47.34V135H34.68V47.34H30.68ZM32.68 137H62.2V133H32.68V137ZM156.987 99.72V101.72H158.987V99.72H156.987ZM156.987 74.7H158.987V72.7H156.987V74.7ZM93.447 74.7V72.7H91.447V74.7H93.447ZM93.447 99.72H91.447V101.72H93.447V99.72ZM158.987 99.72V74.7H154.987V99.72H158.987ZM156.987 72.7H93.447V76.7H156.987V72.7ZM91.447 74.7V99.72H95.447V74.7H91.447ZM93.447 101.72H156.987V97.72H93.447V101.72ZM229.505 135V137H231.505V135H229.505ZM229.505 4.5H231.505V2.5H229.505V4.5ZM207.005 4.5V2.5H205.657L205.151 3.74913L207.005 4.5ZM170.285 25.56L170.236 23.5606L168.285 23.6086V25.56H170.285ZM170.285 47.34H168.285V49.34H170.285V47.34ZM199.985 47.34H201.985V45.34H199.985V47.34ZM199.985 135H197.985V137H199.985V135ZM231.505 135V4.5H227.505V135H231.505ZM229.505 2.5H207.005V6.5H229.505V2.5ZM205.151 3.74913C202.374 10.6051 198.917 15.3176 193.693 18.4438C188.407 21.6066 181.07 23.2942 170.236 23.5606L170.334 27.5594C181.46 27.2858 189.602 25.5534 195.747 21.8762C201.953 18.1624 205.876 12.6149 208.858 5.25086L205.151 3.74913ZM168.285 25.56V47.34H172.285V25.56H168.285ZM170.285 49.34H199.985V45.34H170.285V49.34ZM197.985 47.34V135H201.985V47.34H197.985ZM199.985 137H229.505V133H199.985V137ZM258.592 51.48L256.593 51.5381L256.649 53.48H258.592V51.48ZM287.932 51.48V53.48H290.02L289.93 51.3939L287.932 51.48ZM257.152 110.7L255.974 109.083L255.152 109.682V110.7H257.152ZM257.152 135H255.152V137H257.152V135ZM357.412 135V137H359.412V135H357.412ZM357.412 110.7H359.412V108.7H357.412V110.7ZM294.952 110.7L293.955 108.966L287.459 112.7H294.952V110.7ZM309.712 0.339992C294.201 0.339992 280.675 5.00503 271.117 13.8307C261.533 22.6818 256.128 35.5479 256.593 51.5381L260.591 51.4219C260.156 36.4521 265.191 24.7482 273.831 16.7693C282.499 8.76495 294.982 4.33999 309.712 4.33999V0.339992ZM258.592 53.48H287.932V49.48H258.592V53.48ZM289.93 51.3939C289.496 41.3166 292.023 35.1223 295.56 31.4468C299.111 27.7573 303.972 26.3 308.812 26.3V22.3C303.211 22.3 297.182 23.9927 292.678 28.6732C288.16 33.3676 285.468 40.7634 285.934 51.5661L289.93 51.3939ZM308.812 26.3C313.437 26.3 317.488 27.5215 320.343 29.8717C323.142 32.1759 324.992 35.7246 324.992 40.86H328.992C328.992 34.6554 326.701 29.9241 322.885 26.7833C319.125 23.6885 314.086 22.3 308.812 22.3V26.3ZM324.992 40.86C324.992 45.6663 323.041 50.7182 319.365 56.0844C315.691 61.4473 310.387 66.9875 303.908 72.7308C290.929 84.2348 273.593 96.2532 255.974 109.083L258.329 112.317C275.81 99.5868 293.394 87.3952 306.561 75.7242C313.154 69.88 318.728 64.0915 322.665 58.345C326.6 52.6018 328.992 46.7637 328.992 40.86H324.992ZM255.152 110.7V135H259.152V110.7H255.152ZM257.152 137H357.412V133H257.152V137ZM359.412 135V110.7H355.412V135H359.412ZM357.412 108.7H294.952V112.7H357.412V108.7ZM295.948 112.434C315.279 101.323 330.966 90.1312 341.836 78.1834C352.733 66.2061 358.872 53.3724 358.872 39.06H354.872C354.872 52.1076 349.311 64.0239 338.877 75.4916C328.417 86.9888 313.145 97.9366 293.955 108.966L295.948 112.434ZM358.872 39.06C358.872 26.8109 353.618 17.0419 344.752 10.3925C335.944 3.78658 323.694 0.339992 309.712 0.339992V4.33999C323.09 4.33999 334.42 7.6434 342.352 13.5925C350.226 19.4981 354.872 28.0891 354.872 39.06H358.872ZM420.444 135V137H422.444V135H420.444ZM420.444 102.96H422.444V100.96H420.444V102.96ZM386.964 102.96V100.96H384.964V102.96H386.964ZM386.964 135H384.964V137H386.964V135ZM422.444 135V102.96H418.444V135H422.444ZM420.444 100.96H386.964V104.96H420.444V100.96ZM384.964 102.96V135H388.964V102.96H384.964ZM386.964 137H420.444V133H386.964V137ZM470.91 94.86L472.879 94.5084L472.585 92.86H470.91V94.86ZM442.29 94.86V92.86H439.955L440.314 95.168L442.29 94.86ZM476.49 53.1L474.506 52.8519L473.954 57.2641L477.622 54.7495L476.49 53.1ZM479.55 28.62V26.62H477.785L477.566 28.3719L479.55 28.62ZM542.19 28.62V30.62H544.19V28.62H542.19ZM542.19 4.5H544.19V2.5H542.19V4.5ZM454.89 4.5V2.5H453.123L452.906 4.25371L454.89 4.5ZM445.71 78.48L443.726 78.2337L443.473 80.2676L445.513 80.4702L445.71 78.48ZM472.89 81.18L472.693 83.1702L474.027 83.3027L474.656 82.1192L472.89 81.18ZM494.67 113.38C489.211 113.38 484.423 112.101 480.711 109.212C477.021 106.339 474.163 101.695 472.879 94.5084L468.942 95.2116C470.358 103.145 473.62 108.761 478.254 112.368C482.868 115.959 488.61 117.38 494.67 117.38V113.38ZM470.91 92.86H442.29V96.86H470.91V92.86ZM440.314 95.168C442.548 109.499 449.231 120.589 458.933 128.078C468.615 135.551 481.172 139.34 495.03 139.34V135.34C481.889 135.34 470.236 131.749 461.378 124.912C452.54 118.091 446.353 107.941 444.267 94.552L440.314 95.168ZM495.03 139.34C509.68 139.34 523.467 135.335 533.638 127.348C543.863 119.319 550.31 107.355 550.31 91.8H546.31C546.31 106.125 540.428 116.931 531.168 124.202C521.854 131.515 509.001 135.34 495.03 135.34V139.34ZM550.31 91.8C550.31 76.1479 544.515 64.2065 535.534 56.1974C526.588 48.2193 514.617 44.26 502.41 44.26V48.26C513.784 48.26 524.763 51.9506 532.872 59.1826C540.946 66.3835 546.31 77.212 546.31 91.8H550.31ZM502.41 44.26C492.973 44.26 482.095 46.8315 475.359 51.4505L477.622 54.7495C483.485 50.7285 493.488 48.26 502.41 48.26V44.26ZM478.475 53.3481L481.535 28.8681L477.566 28.3719L474.506 52.8519L478.475 53.3481ZM479.55 30.62H542.19V26.62H479.55V30.62ZM544.19 28.62V4.5H540.19V28.62H544.19ZM542.19 2.5H454.89V6.5H542.19V2.5ZM452.906 4.25371L443.726 78.2337L447.695 78.7263L456.875 4.74628L452.906 4.25371ZM445.513 80.4702L472.693 83.1702L473.088 79.1898L445.908 76.4898L445.513 80.4702ZM474.656 82.1192C478.791 74.3451 485.652 70.22 495.21 70.22V66.22C484.249 66.22 475.99 71.0949 471.125 80.2408L474.656 82.1192ZM495.21 70.22C500.534 70.22 505.646 72.0074 509.41 75.5491C513.147 79.0656 515.71 84.4554 515.71 91.98H519.71C519.71 83.4846 516.784 76.9944 512.151 72.6359C507.545 68.3026 501.407 66.22 495.21 66.22V70.22ZM515.71 91.98C515.71 99.0865 513.396 104.384 509.732 107.908C506.053 111.447 500.823 113.38 494.67 113.38V117.38C501.658 117.38 507.948 115.173 512.504 110.792C517.075 106.396 519.71 99.9935 519.71 91.98H515.71Z" fill="white"/>
</svg>
