<svg width="371" height="134" viewBox="0 0 371 134" fill="none" xmlns="http://www.w3.org/2000/svg">
<path opacity="0.6" d="M2.66 112.02L1.52057 110.376L0.66 110.973V112.02H2.66ZM59.54 28.5L57.9895 29.7633L58.0033 29.7803L58.0175 29.7969L59.54 28.5ZM28.04 47.94V49.94H29.9531L30.038 48.0288L28.04 47.94ZM3.38 47.94L1.3823 47.8441L1.2817 49.94H3.38V47.94ZM17.06 13.92L18.4095 15.3961L18.4152 15.3908L18.4209 15.3856L17.06 13.92ZM78.98 12.48L77.5781 13.9065L77.5905 13.9186L77.6031 13.9306L78.98 12.48ZM81.68 66.3L79.9549 65.288L79.9508 65.2952L81.68 66.3ZM61.88 90.96L63.2384 92.4279L63.2442 92.4225L63.2501 92.417L61.88 90.96ZM36.5 110.22L35.4608 108.511L29.3619 112.22H36.5V110.22ZM92.12 110.22H94.12V108.22H92.12V110.22ZM92.12 130.92V132.92H94.12V130.92H92.12ZM2.66 130.92H0.66V132.92H2.66V130.92ZM3.79943 113.664C24.2053 99.518 39.6105 86.5092 49.9345 74.6321C60.2253 62.7931 65.68 51.8341 65.68 41.82H61.68C61.68 50.4059 56.9648 60.4469 46.9155 72.0079C36.8995 83.5308 21.7947 96.322 1.52057 110.376L3.79943 113.664ZM65.68 41.82C65.68 35.861 64.2188 30.9083 61.0625 27.2031L58.0175 29.7969C60.3812 32.5716 61.68 36.499 61.68 41.82H65.68ZM61.0905 27.2366C57.9413 23.3718 53.0612 21.64 46.94 21.64V25.64C52.3388 25.64 55.8587 27.1482 57.9895 29.7633L61.0905 27.2366ZM46.94 21.64C40.4928 21.64 35.3179 23.8693 31.7263 28.4871C28.2129 33.0043 26.4105 39.5594 26.042 47.8512L30.038 48.0288C30.3895 40.1206 32.0971 34.5257 34.8837 30.9429C37.5921 27.4607 41.5073 25.64 46.94 25.64V21.64ZM28.04 45.94H3.38V49.94H28.04V45.94ZM5.3777 48.0359C6.08076 33.3889 10.5118 22.6169 18.4095 15.3961L15.7105 12.4439C6.80825 20.5831 2.11925 32.4911 1.3823 47.8441L5.3777 48.0359ZM18.4209 15.3856C26.4056 7.97123 36.5193 4.22 48.92 4.22V0.219997C35.6407 0.219997 24.5144 4.26877 15.6991 12.4544L18.4209 15.3856ZM48.92 4.22C61.6592 4.22 71.1054 7.54527 77.5781 13.9065L80.3819 11.0535C72.9347 3.73472 62.3408 0.219997 48.92 0.219997V4.22ZM77.6031 13.9306C84.2224 20.2133 87.6 28.6553 87.6 39.48H91.6C91.6 27.7446 87.8976 18.1867 80.3569 11.0294L77.6031 13.9306ZM87.6 39.48C87.6 47.9462 85.0867 56.5406 79.955 65.288L83.4051 67.312C88.8333 58.0593 91.6 48.7738 91.6 39.48H87.6ZM79.9508 65.2952C74.895 73.9958 68.4195 82.0657 60.51 89.503L63.2501 92.417C71.4206 84.7343 78.1451 76.3642 83.4093 67.3048L79.9508 65.2952ZM60.5216 89.4921C52.5745 96.8462 44.2207 103.184 35.4608 108.511L37.5392 111.929C46.5393 106.456 55.1056 99.9538 63.2384 92.4279L60.5216 89.4921ZM36.5 112.22H92.12V108.22H36.5V112.22ZM90.12 110.22V130.92H94.12V110.22H90.12ZM92.12 128.92H2.66V132.92H92.12V128.92ZM4.66 130.92V112.02H0.66V130.92H4.66ZM195.433 22.74L197.274 23.5223L197.433 23.1474V22.74H195.433ZM148.993 132V134H150.316L150.834 132.782L148.993 132ZM122.713 132L120.884 131.192L119.644 134H122.713V132ZM169.693 25.62L171.523 26.428L172.763 23.62H169.693V25.62ZM110.833 25.62H108.833V27.62H110.833V25.62ZM110.833 3.84V1.84H108.833V3.84H110.833ZM195.433 3.84H197.433V1.84H195.433V3.84ZM193.592 21.9576L147.152 131.218L150.834 132.782L197.274 23.5223L193.592 21.9576ZM148.993 130H122.713V134H148.993V130ZM124.543 132.808L171.523 26.428L167.864 24.812L120.884 131.192L124.543 132.808ZM169.693 23.62H110.833V27.62H169.693V23.62ZM112.833 25.62V3.84H108.833V25.62H112.833ZM110.833 5.84H195.433V1.84H110.833V5.84ZM193.433 3.84V22.74H197.433V3.84H193.433ZM241.939 105.54H243.939V103.54H241.939V105.54ZM241.939 132V134H243.939V132H241.939ZM214.579 132H212.579V134H214.579V132ZM214.579 105.54V103.54H212.579V105.54H214.579ZM239.939 105.54V132H243.939V105.54H239.939ZM241.939 130H214.579V134H241.939V130ZM216.579 132V105.54H212.579V132H216.579ZM214.579 107.54H241.939V103.54H214.579V107.54ZM264.348 106.44H262.348V108.44H264.348V106.44ZM264.348 85.38L262.743 84.1874L262.348 84.7184V85.38H264.348ZM325.188 3.47999V1.47999H324.182L323.583 2.28734L325.188 3.47999ZM352.368 3.47999H354.368V1.47999H352.368V3.47999ZM352.368 84.48H350.368V86.48H352.368V84.48ZM368.928 84.48H370.928V82.48H368.928V84.48ZM368.928 106.44V108.44H370.928V106.44H368.928ZM352.368 106.44V104.44H350.368V106.44H352.368ZM352.368 132V134H354.368V132H352.368ZM326.808 132H324.808V134H326.808V132ZM326.808 106.44H328.808V104.44H326.808V106.44ZM328.788 33.18H330.788V27.1856L327.189 31.9791L328.788 33.18ZM290.268 84.48L288.669 83.2791L286.265 86.48H290.268V84.48ZM328.788 84.48V86.48H330.788V84.48H328.788ZM266.348 106.44V85.38H262.348V106.44H266.348ZM265.954 86.5726L326.794 4.67264L323.583 2.28734L262.743 84.1874L265.954 86.5726ZM325.188 5.47999H352.368V1.47999H325.188V5.47999ZM350.368 3.47999V84.48H354.368V3.47999H350.368ZM352.368 86.48H368.928V82.48H352.368V86.48ZM366.928 84.48V106.44H370.928V84.48H366.928ZM368.928 104.44H352.368V108.44H368.928V104.44ZM350.368 106.44V132H354.368V106.44H350.368ZM352.368 130H326.808V134H352.368V130ZM328.808 132V106.44H324.808V132H328.808ZM326.808 104.44H264.348V108.44H326.808V104.44ZM327.189 31.9791L288.669 83.2791L291.867 85.6809L330.387 34.3809L327.189 31.9791ZM290.268 86.48H328.788V82.48H290.268V86.48ZM330.788 84.48V33.18H326.788V84.48H330.788Z" fill="white"/>
</svg>
