<?xml version="1.0" encoding="utf-8"?>
<!-- Generator: Adobe Illustrator 22.0.1, SVG Export Plug-In . SVG Version: 6.00 Build 0)  -->
<svg version="1.1" id="Слой_1" xmlns="http://www.w3.org/2000/svg" xmlns:xlink="http://www.w3.org/1999/xlink" x="0px" y="0px"
	 viewBox="0 0 8.4 8.4" style="enable-background:new 0 0 8.4 8.4;" xml:space="preserve">
<path d="M-93.2,9.9V-1.3h4.4c1,0,1.8,0.3,2.3,0.9c0.5,0.6,0.8,1.3,0.8,2.3s-0.3,1.8-0.8,2.4c-0.5,0.6-1.3,0.8-2.3,0.8h-3.1v4.8
	H-93.2z M-91.8,3.9h3.1c0.5,0,0.9-0.1,1.2-0.4c0.3-0.3,0.4-0.7,0.4-1.2V1.5c0-0.5-0.1-0.9-0.4-1.2c-0.3-0.3-0.7-0.4-1.2-0.4h-3.1
	V3.9z M-77.8,9.9c-0.5,0-0.8-0.1-1-0.4c-0.2-0.3-0.3-0.6-0.4-1h-0.1c-0.2,0.5-0.5,0.9-0.9,1.2c-0.4,0.3-0.9,0.4-1.5,0.4
	c-0.9,0-1.6-0.2-2-0.7c-0.5-0.4-0.7-1.1-0.7-1.8c0-0.8,0.3-1.4,0.8-1.8c0.6-0.4,1.5-0.6,2.7-0.6h1.6V4.3c0-0.6-0.2-1-0.5-1.3
	s-0.8-0.5-1.5-0.5c-0.5,0-0.9,0.1-1.3,0.3c-0.3,0.2-0.6,0.5-0.8,0.9L-84.1,3c0.2-0.4,0.6-0.8,1.1-1.1c0.5-0.3,1.1-0.5,1.9-0.5
	c1,0,1.8,0.2,2.3,0.7c0.6,0.5,0.8,1.2,0.8,2v4.5h0.9v1.1H-77.8z M-81.4,9c0.3,0,0.6,0,0.9-0.1c0.3-0.1,0.5-0.2,0.7-0.3
	c0.2-0.1,0.3-0.3,0.4-0.5c0.1-0.2,0.2-0.4,0.2-0.6V6.1H-81c-0.7,0-1.3,0.1-1.6,0.3c-0.3,0.2-0.5,0.5-0.5,0.9v0.3
	c0,0.4,0.1,0.7,0.4,0.9C-82.3,8.9-81.9,9-81.4,9z M-72.1,10.1c-0.6,0-1.1-0.1-1.6-0.3c-0.5-0.2-0.8-0.5-1.2-0.9
	c-0.3-0.4-0.5-0.8-0.7-1.4c-0.2-0.5-0.2-1.1-0.2-1.8c0-0.7,0.1-1.3,0.2-1.8c0.2-0.5,0.4-1,0.7-1.4c0.3-0.4,0.7-0.7,1.2-0.9
	c0.5-0.2,1-0.3,1.6-0.3c0.8,0,1.5,0.2,2,0.5c0.5,0.4,0.9,0.8,1.1,1.4l-1.1,0.5c-0.1-0.4-0.4-0.8-0.7-1c-0.3-0.2-0.8-0.4-1.3-0.4
	c-0.4,0-0.7,0.1-1,0.2c-0.3,0.1-0.5,0.3-0.7,0.5c-0.2,0.2-0.3,0.5-0.4,0.8c-0.1,0.3-0.1,0.6-0.1,1v1.4c0,0.7,0.2,1.3,0.6,1.8
	c0.4,0.5,1,0.7,1.7,0.7c1,0,1.8-0.5,2.2-1.4l0.9,0.6c-0.3,0.6-0.7,1.1-1.2,1.4C-70.7,9.9-71.4,10.1-72.1,10.1z M-67.2,1.6h6.4v8.3
	H-62V2.7h-3.9v7.1h-1.3V1.6z M-58,1.6h1.2v4.6l-0.1,2h0.1l1-1.8l3.3-4.8h1.2v8.3h-1.2V5.3l0.1-2h-0.1l-1,1.8l-3.3,4.8H-58V1.6z
	 M-45.5,10.1c-0.6,0-1.1-0.1-1.6-0.3c-0.5-0.2-0.8-0.5-1.2-0.9c-0.3-0.4-0.5-0.8-0.7-1.4c-0.2-0.5-0.2-1.1-0.2-1.8
	c0-0.7,0.1-1.3,0.2-1.8c0.2-0.5,0.4-1,0.7-1.4c0.3-0.4,0.7-0.7,1.2-0.9c0.5-0.2,1-0.3,1.6-0.3c0.8,0,1.5,0.2,2,0.5
	c0.5,0.4,0.9,0.8,1.1,1.4l-1.1,0.5c-0.1-0.4-0.4-0.8-0.7-1c-0.3-0.2-0.8-0.4-1.3-0.4c-0.4,0-0.7,0.1-1,0.2c-0.3,0.1-0.5,0.3-0.7,0.5
	c-0.2,0.2-0.3,0.5-0.4,0.8c-0.1,0.3-0.1,0.6-0.1,1v1.4c0,0.7,0.2,1.3,0.6,1.8c0.4,0.5,1,0.7,1.7,0.7c1,0,1.8-0.5,2.2-1.4l0.9,0.6
	c-0.3,0.6-0.7,1.1-1.2,1.4C-44.1,9.9-44.7,10.1-45.5,10.1z M-34.5,9.9c-0.5,0-0.8-0.1-1-0.4c-0.2-0.3-0.3-0.6-0.4-1H-36
	c-0.2,0.5-0.5,0.9-0.9,1.2c-0.4,0.3-0.9,0.4-1.5,0.4c-0.9,0-1.6-0.2-2-0.7c-0.5-0.4-0.7-1.1-0.7-1.8c0-0.8,0.3-1.4,0.8-1.8
	c0.6-0.4,1.5-0.6,2.7-0.6h1.6V4.3c0-0.6-0.2-1-0.5-1.3s-0.8-0.5-1.5-0.5c-0.5,0-0.9,0.1-1.3,0.3c-0.3,0.2-0.6,0.5-0.8,0.9L-40.9,3
	c0.2-0.4,0.6-0.8,1.1-1.1c0.5-0.3,1.1-0.5,1.9-0.5c1,0,1.8,0.2,2.3,0.7c0.6,0.5,0.8,1.2,0.8,2v4.5h0.9v1.1H-34.5z M-38.2,9
	c0.3,0,0.6,0,0.9-0.1c0.3-0.1,0.5-0.2,0.7-0.3c0.2-0.1,0.3-0.3,0.4-0.5c0.1-0.2,0.2-0.4,0.2-0.6V6.1h-1.7c-0.7,0-1.3,0.1-1.6,0.3
	c-0.3,0.2-0.5,0.5-0.5,0.9v0.3c0,0.4,0.1,0.7,0.4,0.9C-39.1,8.9-38.7,9-38.2,9z M-32,1.6h1.3v3.4h4.1V1.6h1.3v8.3h-1.3V6.2h-4.1v3.7
	H-32V1.6z M-22.6,1.6h1.2v4.6l-0.1,2h0.1l1-1.8l3.3-4.8h1.2v8.3h-1.2V5.3l0.1-2h-0.1l-1,1.8l-3.3,4.8h-1.2V1.6z M-10.1,10.1
	c-0.6,0-1.1-0.1-1.5-0.3c-0.4-0.2-0.8-0.5-1.2-0.9c-0.3-0.4-0.6-0.8-0.8-1.4c-0.2-0.5-0.3-1.1-0.3-1.8c0-0.7,0.1-1.2,0.3-1.8
	c0.2-0.5,0.4-1,0.8-1.4c0.3-0.4,0.7-0.7,1.2-0.9c0.5-0.2,1-0.3,1.5-0.3c0.6,0,1.1,0.1,1.5,0.3c0.4,0.2,0.8,0.5,1.1,0.8
	c0.3,0.4,0.5,0.8,0.7,1.3c0.2,0.5,0.3,1,0.3,1.6v0.6h-5.9v0.4c0,0.4,0.1,0.7,0.2,1c0.1,0.3,0.3,0.6,0.5,0.8c0.2,0.2,0.5,0.4,0.8,0.5
	c0.3,0.1,0.7,0.2,1,0.2c0.5,0,1-0.1,1.4-0.4C-8.2,8.3-7.9,8-7.7,7.5l0.9,0.7c-0.3,0.6-0.7,1-1.2,1.4C-8.6,9.9-9.3,10.1-10.1,10.1z
	 M-10.1,2.5c-0.4,0-0.7,0.1-1,0.2c-0.3,0.1-0.5,0.3-0.8,0.5C-12,3.4-12.2,3.7-12.3,4c-0.1,0.3-0.2,0.6-0.2,1v0.1h4.6V4.9
	c0-0.7-0.2-1.3-0.6-1.8C-8.9,2.7-9.4,2.5-10.1,2.5z M8.4,4.7H7.3v-2l0.1-1l0,0l-1,1.2L0.8,8.5L0,7.7l5.6-5.6l1.2-1l0,0l-1,0.1h-2V0
	h4.7V4.7z"/>
</svg>
