<?xml version="1.0" encoding="utf-8"?>
<!-- Generator: Adobe Illustrator 22.0.1, SVG Export Plug-In . SVG Version: 6.00 Build 0)  -->
<svg version="1.1" xmlns="http://www.w3.org/2000/svg" xmlns:xlink="http://www.w3.org/1999/xlink" x="0px" y="0px"
	 viewBox="0 0 115 38" style="enable-background:new 0 0 115 38;" xml:space="preserve">
<style type="text/css">
	.st0{fill:#FFFFFF;}
	.st1{fill:#FFFFFF;filter:url(#Adobe_OpacityMaskFilter);}
	.st2{mask:url(#mask0_1_);}
</style>
<g id="Слой_1">
	<path class="st0" d="M48.3,13v10h1.2v-4.1h1.6c1.9,0,3.5-0.8,3.5-3v-0.1c0-2.1-1.6-2.9-3.5-2.9H48.3z M51.3,18h-1.7v-4h1.7
		c1.4,0,2.2,0.5,2.2,1.9V16C53.5,17.3,52.7,18,51.3,18z M56.6,12.2V23h1.2v-4.4c0-1.3,1-2,2-2c1.2,0,1.7,0.6,1.7,1.9V23h1.2v-4.5
		c0-2.1-1.1-3-2.6-3c-1.2,0-2,0.6-2.4,1.3v-4.7H56.6z M68.2,22.2c-1.5,0-2.4-1.1-2.4-2.8v-0.1c0-1.7,0.9-2.8,2.4-2.8
		c1.5,0,2.4,1.1,2.4,2.8v0.1C70.5,21.1,69.6,22.2,68.2,22.2z M68.1,23.1c2.1,0,3.6-1.5,3.6-3.7v-0.1c0-2.2-1.5-3.7-3.6-3.7
		s-3.6,1.5-3.6,3.7v0.1C64.6,21.5,66.1,23.1,68.1,23.1z M76,23.1c0.5,0,0.8-0.1,1-0.2v-1c-0.3,0.1-0.5,0.2-0.9,0.2
		c-0.6,0-0.9-0.4-0.9-1.1v-4.4h1.7v-1h-1.7V14H74v1.7h-1v1h1v4.5C74,22.3,74.6,23.1,76,23.1z M81.9,22.2c-1.5,0-2.4-1.1-2.4-2.8
		v-0.1c0-1.7,0.9-2.8,2.4-2.8c1.5,0,2.4,1.1,2.4,2.8v0.1C84.3,21.1,83.4,22.2,81.9,22.2z M81.9,23.1c2.1,0,3.6-1.5,3.6-3.7v-0.1
		c0-2.2-1.5-3.7-3.6-3.7s-3.6,1.5-3.6,3.7v0.1C78.3,21.5,79.8,23.1,81.9,23.1z M87.5,15.7v9.9h1.2v-3.8c0.4,0.7,1.3,1.3,2.5,1.3
		c2,0,3.3-1.5,3.3-3.8v-0.1c0-2.3-1.4-3.7-3.3-3.7c-1.1,0-2.1,0.6-2.5,1.4v-1.2H87.5z M91,22.2c-1.4,0-2.4-0.9-2.4-2.8v-0.1
		c0-1.9,1-2.8,2.4-2.8c1.2,0,2.3,0.9,2.3,2.8v0.1C93.3,21.2,92.5,22.2,91,22.2z M96.5,12.2V23h1.2V12.2H96.5z M102,23.1
		c1.1,0,1.7-0.4,2.3-1V23h1.2v-4.8c0-2.1-1.3-2.6-2.7-2.6c-1.4,0-2.7,0.6-2.9,2.3h1.2c0.1-0.9,0.7-1.3,1.7-1.3
		c1.1,0,1.6,0.5,1.6,1.7v0.5h-1.1c-1.9,0-3.7,0.6-3.7,2.3C99.6,22.5,100.7,23.1,102,23.1z M102.1,22.2c-1,0-1.4-0.5-1.4-1.2
		c0-1.1,1.1-1.4,2.5-1.4h1v0.9C104.3,21.6,103.4,22.2,102.1,22.2z M109.7,22.2l-1.4,3.3h1.2l4-9.9h-1.2l-2,5.2l-2.2-5.2h-1.2
		L109.7,22.2z"/>
	<path class="st0" d="M19,38c10.5,0,19-8.5,19-19S29.5,0,19,0S0,8.5,0,19S8.5,38,19,38z"/>
	<defs>
		<filter id="Adobe_OpacityMaskFilter" filterUnits="userSpaceOnUse">
			<feColorMatrix  type="matrix" values="1 0 0 0 0  0 1 0 0 0  0 0 1 0 0  0 0 0 1 0"/>
		</filter>
	</defs>
	<mask maskUnits="userSpaceOnUse" id="mask0_1_">
		<path class="st1" d="M19,38c10.5,0,19-8.5,19-19S29.5,0,19,0S0,8.5,0,19S8.5,38,19,38z"/>
	</mask>
	<g class="st2">
	</g>
</g>
<g id="Слой_2">
	<path d="M8,10.1v17h3.9v-5.9h2.5c4.3,0,7.6-1.1,7.6-5.6c0-4.5-3.2-5.5-7.6-5.5H8z M14.5,13.4c1.8,0,3.3,0.4,3.3,2.2
		s-1.5,2.2-3.3,2.2h-2.6v-4.4H14.5z"/>
	<path d="M32,22l-8,5V17L32,22z"/>
</g>
</svg>
