<svg width="116" height="15" viewBox="0 0 116 15" fill="none" xmlns="http://www.w3.org/2000/svg">
<path d="M0.187988 0.949887V13.9999H3.26599V9.48189H5.20999C8.59399 9.48189 11.132 8.63589 11.132 5.19789C11.132 1.77789 8.59399 0.949887 5.20999 0.949887H0.187988ZM5.29999 3.54189C6.73999 3.54189 7.87399 3.82989 7.87399 5.19789C7.87399 6.56589 6.73999 6.88989 5.29999 6.88989H3.26599V3.54189H5.29999Z" fill="white"/>
<path d="M21.4116 0.949887V5.93589H16.0476V0.949887H12.9696V13.9999H16.0476V8.65389H21.4116V13.9999H24.4896V0.949887H21.4116Z" fill="white"/>
<path d="M29.9399 7.48389C29.9399 4.71189 31.5239 3.27189 33.4499 3.27189C35.3759 3.27189 36.9599 4.71189 36.9599 7.48389C36.9599 10.2559 35.3759 11.6959 33.4499 11.6959C31.5239 11.6959 29.9399 10.2559 29.9399 7.48389ZM40.2179 7.48389C40.2179 3.41589 37.4459 0.733887 33.4499 0.733887C29.4359 0.733887 26.6819 3.41589 26.6819 7.48389C26.6819 11.5519 29.4359 14.2339 33.4499 14.2339C37.4459 14.2339 40.2179 11.5519 40.2179 7.48389Z" fill="white"/>
<path d="M45.0386 13.9999H48.1346V3.64989H52.3286V0.949887H40.8626V3.64989H45.0386V13.9999Z" fill="white"/>
<path d="M56.2415 7.48389C56.2415 4.71189 57.8255 3.27189 59.7515 3.27189C61.6775 3.27189 63.2615 4.71189 63.2615 7.48389C63.2615 10.2559 61.6775 11.6959 59.7515 11.6959C57.8255 11.6959 56.2415 10.2559 56.2415 7.48389ZM66.5195 7.48389C66.5195 3.41589 63.7475 0.733887 59.7515 0.733887C55.7375 0.733887 52.9835 3.41589 52.9835 7.48389C52.9835 11.5519 55.7375 14.2339 59.7515 14.2339C63.7475 14.2339 66.5195 11.5519 66.5195 7.48389Z" fill="white"/>
<path d="M68.7017 0.949887V13.9999H71.7797V9.48189H73.7237C77.1077 9.48189 79.6457 8.63589 79.6457 5.19789C79.6457 1.77789 77.1077 0.949887 73.7237 0.949887H68.7017ZM73.8137 3.54189C75.2537 3.54189 76.3877 3.82989 76.3877 5.19789C76.3877 6.56589 75.2537 6.88989 73.8137 6.88989H71.7797V3.54189H73.8137Z" fill="white"/>
<path d="M84.5613 0.949887H81.4833V13.9999H90.8253V11.2819H84.5613V0.949887Z" fill="white"/>
<path d="M91.4928 13.9999H94.7688L95.5428 11.6779H100.583L101.375 13.9999H104.723L99.7908 0.949887H96.4068L91.4928 13.9999ZM98.0808 4.20789L99.7548 9.17589H96.3888L98.0808 4.20789Z" fill="white"/>
<path d="M102.864 0.949887L107.778 8.92389V13.9999H110.856V8.95989L115.896 0.949887H112.332L109.38 5.95389L106.464 0.949887H102.864Z" fill="white"/>
</svg>
