<svg width="12" height="12" viewBox="0 0 12 12" fill="none" xmlns="http://www.w3.org/2000/svg">
<path d="M8.51421 -6.10352e-05H3.48581C1.56373 -6.10352e-05 0 1.56367 0 3.48575V8.51413C0 10.4362 1.56373 11.9999 3.48581 11.9999H8.51419C10.4363 11.9999 12 10.4362 12 8.51415V3.48575C12 1.56367 10.4363 -6.10352e-05 8.51421 -6.10352e-05ZM11.0625 8.51413C11.0625 9.91928 9.91934 11.0624 8.51421 11.0624H3.48581C2.08066 11.0624 0.9375 9.91928 0.9375 8.51415V3.48575C0.9375 2.0806 2.08066 0.937439 3.48581 0.937439H8.51419C9.91934 0.937439 11.0625 2.0806 11.0625 3.48575V8.51413Z" fill="black"/>
</svg>
