<svg width="16" height="10" viewBox="0 0 16 10" fill="none" xmlns="http://www.w3.org/2000/svg">
<path d="M14.3044 3.76501C15.9601 1.52356 15.5929 1.48157 16 0.78125H12.8273C12.8273 0.78125 12.6018 1.56409 12.533 1.70422C11.9236 2.9436 10.5568 4.80322 9.7301 4.99329C8.91614 5.18054 9.02417 3.25696 9.07434 2.42371C9.12158 1.65137 9.11353 1.3811 9.09082 1.24768C9.05762 1.05273 8.89404 0.910522 8.69775 0.885742C8.29309 0.834473 7.55884 0.761963 6.73657 0.800049L6.00098 0.824463C6.29102 1.47327 6.48694 1.27441 6.59375 2.02502C6.71436 2.90381 6.66687 5.04211 5.80139 5.04211C4.41394 5.04211 2.85657 0.875122 2.80701 0.78125H0L0.256836 1.42395C2.32678 6.60583 4.91565 9.00586 8.45776 9.20544L8.9187 9.21875L8.95166 8.77112C9.00146 8.07983 9.34827 7.08472 9.96338 7.08472C10.8722 7.08472 11.1348 7.34937 11.7341 8.08997C12.3104 8.80005 12.7075 9.21875 13.6375 9.21875H16L15.6631 8.54126C15.137 7.48499 14.0817 6.57947 13.6696 6.0542C13.5203 5.85645 13.3733 5.54382 13.5254 5.16565C13.6498 4.8363 14.0201 4.14941 14.3044 3.76501Z" fill="black"/>
</svg>
