<svg width="97" height="24" viewBox="0 0 97 24" fill="none" xmlns="http://www.w3.org/2000/svg">
<path d="M0.976 0.664H14.64V3.032H3.664V9.624H10.32C12.3253 9.624 13.8613 10.2107 14.928 11.384C16.016 12.536 16.56 14.1787 16.56 16.312C16.56 18.4453 16.016 20.0987 14.928 21.272C13.8613 22.424 12.3253 23 10.32 23H0.976V0.664ZM10.32 20.632C11.3867 20.632 12.208 20.344 12.784 19.768C13.3813 19.192 13.68 18.3173 13.68 17.144V15.48C13.68 14.3067 13.3813 13.432 12.784 12.856C12.208 12.28 11.3867 11.992 10.32 11.992H3.664V20.632H10.32ZM18.5373 20.76H20.7133C20.9906 20.376 21.2359 19.9173 21.4493 19.384C21.6626 18.8507 21.8439 18.2107 21.9933 17.464C22.1426 16.7173 22.2599 15.832 22.3453 14.808C22.4306 13.784 22.4733 12.5787 22.4733 11.192V6.488H33.6413V23H31.0813V8.728H24.9053V11.256C24.9053 12.856 24.8413 14.2533 24.7133 15.448C24.6066 16.6427 24.4466 17.6667 24.2333 18.52C24.0413 19.3733 23.8066 20.0773 23.5293 20.632C23.2519 21.1653 22.9533 21.592 22.6333 21.912C22.2279 22.3173 21.7799 22.6053 21.2893 22.776C20.7986 22.9253 20.2119 23 19.5293 23H18.5373V20.76ZM45.335 23.384C44.2257 23.384 43.2123 23.1813 42.295 22.776C41.3777 22.3707 40.5883 21.7947 39.927 21.048C39.287 20.28 38.7857 19.3733 38.423 18.328C38.0603 17.2613 37.879 16.0667 37.879 14.744C37.879 13.4427 38.0603 12.2587 38.423 11.192C38.7857 10.1253 39.287 9.21867 39.927 8.472C40.5883 7.704 41.3777 7.11733 42.295 6.712C43.2123 6.30667 44.2257 6.104 45.335 6.104C46.4443 6.104 47.447 6.30667 48.343 6.712C49.2603 7.11733 50.0497 7.704 50.711 8.472C51.3723 9.21867 51.8843 10.1253 52.247 11.192C52.6097 12.2587 52.791 13.4427 52.791 14.744C52.791 16.0667 52.6097 17.2613 52.247 18.328C51.8843 19.3733 51.3723 20.28 50.711 21.048C50.0497 21.7947 49.2603 22.3707 48.343 22.776C47.447 23.1813 46.4443 23.384 45.335 23.384ZM45.335 21.112C46.7217 21.112 47.8523 20.6853 48.727 19.832C49.6017 18.9787 50.039 17.6773 50.039 15.928V13.56C50.039 11.8107 49.6017 10.5093 48.727 9.656C47.8523 8.80267 46.7217 8.376 45.335 8.376C43.9483 8.376 42.8177 8.80267 41.943 9.656C41.0683 10.5093 40.631 11.8107 40.631 13.56V15.928C40.631 17.6773 41.0683 18.9787 41.943 19.832C42.8177 20.6853 43.9483 21.112 45.335 21.112ZM57.0013 6.488H67.4333V8.728H59.5613V23H57.0013V6.488ZM96.55 12.728H94.374V8.824L94.566 6.744L94.47 6.712L92.422 9.016L81.254 20.184L79.718 18.648L90.886 7.48L93.19 5.432L93.158 5.336L91.078 5.528H87.174V3.352H96.55V12.728Z" fill="black"/>
</svg>
